HIERARCHY
ROOT Hips
{
	OFFSET 29.690704 76.510812 -6.147423
	CHANNELS 6 Xposition Yposition Zposition Zrotation Yrotation Xrotation 
	JOINT Chest
	{
		OFFSET 0.000006 7.402001 -0.000093
		CHANNELS 3 Zrotation Yrotation Xrotation
		JOINT Chest2
		{
			OFFSET 0.000008 22.273381 0.000121
			CHANNELS 3 Zrotation Yrotation Xrotation
			JOINT Neck
			{
				OFFSET 0.000004 24.176909 -0.000016
				CHANNELS 3 Zrotation Yrotation Xrotation
				JOINT Head
				{
					OFFSET -0.000000 14.085861 1.804137
					CHANNELS 3 Zrotation Yrotation Xrotation
					End Site
					{
						OFFSET 0.000000 0.000000 0.000000
					}
				}
			}
			JOINT LeftCollar
			{
				OFFSET 3.597557 18.018781 -0.346329
				CHANNELS 3 Zrotation Yrotation Xrotation
				JOINT LeftShoulder
				{
					OFFSET 10.189858 -0.000018 -0.000029
					CHANNELS 3 Zrotation Yrotation Xrotation
					JOINT LeftElbow
					{
						OFFSET 26.401578 0.000017 -0.000018
						CHANNELS 3 Zrotation Yrotation Xrotation
						JOINT LeftWrist
						{
							OFFSET 23.922799 -0.000060 -0.000023
							CHANNELS 3 Zrotation Yrotation Xrotation
							JOINT LeftFinger0
							{
								OFFSET 1.909220 -2.169561 3.037486
								CHANNELS 3 Zrotation Yrotation Xrotation
								JOINT LeftFinger01
								{
									OFFSET 2.883510 -0.000013 -0.000037
									CHANNELS 3 Zrotation Yrotation Xrotation
									JOINT LeftFinger02
									{
										OFFSET 2.464499 0.000004 0.000013
										CHANNELS 3 Zrotation Yrotation Xrotation
										End Site
										{
											OFFSET 0.000000 0.000000 0.000000
										}
									}
								}
							}
							JOINT LeftFinger1
							{
								OFFSET 7.810657 0.000014 3.037388
								CHANNELS 3 Zrotation Yrotation Xrotation
								JOINT LeftFinger11
								{
									OFFSET 4.339349 0.000004 -0.000040
									CHANNELS 3 Zrotation Yrotation Xrotation
									JOINT LeftFinger12
									{
										OFFSET 2.169645 -0.000014 0.000017
										CHANNELS 3 Zrotation Yrotation Xrotation
										End Site
										{
											OFFSET 0.000000 0.000000 0.000000
										}
									}
								}
							}
							JOINT LeftFinger2
							{
								OFFSET 7.810723 0.000015 1.006689
								CHANNELS 3 Zrotation Yrotation Xrotation
								JOINT LeftFinger21
								{
									OFFSET 4.773119 -0.000002 0.000011
									CHANNELS 3 Zrotation Yrotation Xrotation
									JOINT LeftFinger22
									{
										OFFSET 2.603506 0.000017 0.000011
										CHANNELS 3 Zrotation Yrotation Xrotation
										End Site
										{
											OFFSET 0.000000 0.000000 0.000000
										}
									}
								}
							}
							JOINT LeftFinger3
							{
								OFFSET 7.376403 0.000008 -1.006684
								CHANNELS 3 Zrotation Yrotation Xrotation
								JOINT LeftFinger31
								{
									OFFSET 4.339252 -0.000035 -0.000018
									CHANNELS 3 Zrotation Yrotation Xrotation
									JOINT LeftFinger32
									{
										OFFSET 2.169592 -0.000027 -0.000015
										CHANNELS 3 Zrotation Yrotation Xrotation
										End Site
										{
											OFFSET 0.000000 0.000000 0.000000
										}
									}
								}
							}
							JOINT LeftFinger4
							{
								OFFSET 6.942725 0.000019 -3.037615
								CHANNELS 3 Zrotation Yrotation Xrotation
								JOINT LeftFinger41
								{
									OFFSET 3.471258 0.000009 0.000006
									CHANNELS 3 Zrotation Yrotation Xrotation
									JOINT LeftFinger42
									{
										OFFSET 1.735741 -0.000024 -0.000003
										CHANNELS 3 Zrotation Yrotation Xrotation
										End Site
										{
											OFFSET 0.000000 0.000000 0.000000
										}
									}
								}
							}
						}
					}
				}
			}
			JOINT RightCollar
			{
				OFFSET -3.597667 18.017974 -0.347222
				CHANNELS 3 Zrotation Yrotation Xrotation
				JOINT RightShoulder
				{
					OFFSET -10.188833 -0.000021 -0.000004
					CHANNELS 3 Zrotation Yrotation Xrotation
					JOINT RightElbow
					{
						OFFSET -26.401945 0.000113 0.000043
						CHANNELS 3 Zrotation Yrotation Xrotation
						JOINT RightWrist
						{
							OFFSET -23.914847 0.000003 0.000023
							CHANNELS 3 Zrotation Yrotation Xrotation
							JOINT RightFinger0
							{
								OFFSET -1.909223 -2.169478 3.037503
								CHANNELS 3 Zrotation Yrotation Xrotation
								JOINT RightFinger01
								{
									OFFSET -2.883686 -0.000029 0.000007
									CHANNELS 3 Zrotation Yrotation Xrotation
									JOINT RightFinger02
									{
										OFFSET -2.464820 0.000030 0.000045
										CHANNELS 3 Zrotation Yrotation Xrotation
										End Site
										{
											OFFSET 0.000000 0.000000 0.000000
										}
									}
								}
							}
							JOINT RightFinger1
							{
								OFFSET -7.810631 -0.000011 3.037534
								CHANNELS 3 Zrotation Yrotation Xrotation
								JOINT RightFinger11
								{
									OFFSET -4.339075 0.000025 -0.000062
									CHANNELS 3 Zrotation Yrotation Xrotation
									JOINT RightFinger12
									{
										OFFSET -2.169660 -0.000018 0.000011
										CHANNELS 3 Zrotation Yrotation Xrotation
										End Site
										{
											OFFSET 0.000000 0.000000 0.000000
										}
									}
								}
							}
							JOINT RightFinger2
							{
								OFFSET -7.810642 0.000012 1.006708
								CHANNELS 3 Zrotation Yrotation Xrotation
								JOINT RightFinger21
								{
									OFFSET -4.773293 0.000041 0.000037
									CHANNELS 3 Zrotation Yrotation Xrotation
									JOINT RightFinger22
									{
										OFFSET -2.603592 0.000073 0.000022
										CHANNELS 3 Zrotation Yrotation Xrotation
										End Site
										{
											OFFSET 0.000000 0.000000 0.000000
										}
									}
								}
							}
							JOINT RightFinger3
							{
								OFFSET -7.376344 0.000018 -1.006697
								CHANNELS 3 Zrotation Yrotation Xrotation
								JOINT RightFinger31
								{
									OFFSET -4.339351 0.000024 0.000007
									CHANNELS 3 Zrotation Yrotation Xrotation
									JOINT RightFinger32
									{
										OFFSET -2.169627 -0.000001 -0.000013
										CHANNELS 3 Zrotation Yrotation Xrotation
										End Site
										{
											OFFSET 0.000000 0.000000 0.000000
										}
									}
								}
							}
							JOINT RightFinger4
							{
								OFFSET -6.942773 0.000038 -3.037564
								CHANNELS 3 Zrotation Yrotation Xrotation
								JOINT RightFinger41
								{
									OFFSET -3.471416 0.000043 -0.000017
									CHANNELS 3 Zrotation Yrotation Xrotation
									JOINT RightFinger42
									{
										OFFSET -1.735663 0.000031 -0.000003
										CHANNELS 3 Zrotation Yrotation Xrotation
										End Site
										{
											OFFSET 0.000000 0.000000 0.000000
										}
									}
								}
							}
						}
					}
				}
			}
		}
	}
	JOINT LeftHip
	{
		OFFSET 9.019092 0.000083 0.000006
		CHANNELS 3 Zrotation Yrotation Xrotation
		JOINT LeftKnee
		{
			OFFSET 0.000017 -35.287113 -0.000061
			CHANNELS 3 Zrotation Yrotation Xrotation
			JOINT LeftAnkle
			{
				OFFSET 0.000006 -35.916589 -0.000049
				CHANNELS 3 Zrotation Yrotation Xrotation
				JOINT LeftToe
				{
					OFFSET 0.000008 -5.863872 13.528890
					CHANNELS 3 Zrotation Yrotation Xrotation
					End Site
					{
						OFFSET 0.000000 0.000000 0.000000
					}
				}
			}
		}
	}
	JOINT RightHip
	{
		OFFSET -9.019786 0.000017 -0.000062
		CHANNELS 3 Zrotation Yrotation Xrotation
		JOINT RightKnee
		{
			OFFSET -0.000002 -35.286823 0.000038
			CHANNELS 3 Zrotation Yrotation Xrotation
			JOINT RightAnkle
			{
				OFFSET -0.000058 -35.913256 0.000039
				CHANNELS 3 Zrotation Yrotation Xrotation
				JOINT RightToe
				{
					OFFSET 0.000041 -5.863200 13.529222
					CHANNELS 3 Zrotation Yrotation Xrotation
					End Site
					{
						OFFSET 0.000000 0.000000 0.000000
					}
				}
			}
		}
	}
}
MOTION
Frames: 5
Frame Time: 0.050000
29.690704 76.510812 -6.147423 0.515330 12.700912 -3.199502 -0.001711 -0.751543 -13.203714 0.693296 -0.930977 14.240236 -2.846006 2.287386 6.084295 -4.896152 1.689255 -3.838289 6.340568 -11.649421 -4.052496 -0.781013 -21.125822 2.730887 -0.001894 -0.142159 -18.375914 -17.924540 19.947683 -6.737000 -31.891996 -36.207386 59.746872 -19.231974 18.258726 -3.109441 -19.400433 18.358561 41.867615 -21.138933 -8.214475 17.879103 -37.054287 -12.987416 7.434087 -27.135592 -11.679866 5.708440 -4.342782 -10.572001 -3.044245 -36.260372 -1.373393 1.860088 -25.755428 -1.577893 1.898885 -12.605452 -8.749104 -2.539030 -28.584009 -0.251540 -0.434326 -18.173510 -0.013988 -0.491882 -7.714377 -4.689486 -20.545786 -19.359518 6.639058 -3.646008 -12.083440 4.729884 -2.995157 -6.782883 4.923583 -1.301429 11.051685 11.120672 15.468506 -0.000557 -3.361375 -33.627151 18.196245 -14.458029 -8.048132 25.041677 42.395901 48.222363 18.260571 -17.344728 -2.795743 17.793493 -16.938360 42.385662 34.677113 2.760113 18.995564 23.515381 8.234653 3.442951 13.199841 5.398414 2.349765 21.991993 6.085106 -1.833917 24.828672 0.124475 -0.395791 15.756806 -0.040743 -0.413429 26.602308 4.526849 -0.495006 19.797630 -0.029463 -0.773086 12.853986 -0.185207 -0.783197 19.271326 1.438516 -14.502522 20.514759 -5.513501 0.908523 13.160826 -3.131719 1.533191 -0.846096 -4.801089 1.789419 0.000793 0.000324 8.513513 -0.478467 -1.963650 -7.158904 0.000363 -0.003911 -2.253652 2.316903 -2.475766 3.941936 -0.004529 0.000357 11.186072 -0.707046 -4.006509 -12.061358 0.004465 0.008404 -1.646459 
29.695572 76.506849 -6.264669 0.429725 12.700514 -3.154812 -0.001646 -0.716478 -13.078910 0.631916 -0.883009 14.200830 -2.531932 2.247337 6.252567 -4.685248 1.701638 -3.825648 6.727056 -11.448998 -4.110907 -0.074172 -19.996468 2.760403 -0.001926 0.164831 -18.346821 -17.617548 20.148066 -6.623899 -31.843910 -36.238697 59.729340 -19.271730 18.290266 -3.122792 -19.460703 18.413103 41.849060 -21.186747 -8.196265 17.866476 -37.160275 -13.019323 7.456922 -27.215416 -11.710649 5.725540 -4.412295 -10.564343 -3.047620 -36.456165 -1.381016 1.870903 -25.963671 -1.594762 1.914065 -12.670304 -8.747256 -2.536093 -28.684399 -0.256899 -0.423130 -18.242399 -0.020095 -0.481378 -7.686315 -4.691466 -20.547693 -19.414158 6.655272 -3.652642 -12.115550 4.745651 -2.999167 -7.118486 4.740170 -1.441072 10.156077 10.320433 14.970714 -0.001077 -3.727087 -33.177155 17.947338 -14.632761 -8.024028 25.046204 42.400845 48.224514 18.255402 -17.342323 -2.794482 17.787348 -16.933565 42.387405 34.642746 2.798733 18.991249 23.488966 8.225623 3.442382 13.186715 5.396152 2.351097 21.984800 6.118146 -1.833474 24.808073 0.126503 -0.385735 15.746712 -0.036854 -0.403746 26.546186 4.529947 -0.505645 19.672625 -0.030590 -0.778974 12.773383 -0.185979 -0.789489 19.259020 1.423818 -14.493874 20.434982 -5.487206 0.926476 13.110521 -3.111493 1.543641 -0.711161 -4.775672 1.771785 0.000665 0.000442 8.603399 -0.530829 -1.957875 -7.220449 0.000088 -0.003718 -2.195773 2.462349 -2.328340 3.901033 -0.004480 0.000113 11.207089 -0.809315 -3.976684 -11.972925 0.004201 0.008564 -1.669622 
29.697896 76.504026 -6.369175 0.352527 12.695602 -3.110373 -0.001589 -0.684093 -12.959756 0.574846 -0.838495 14.162601 -2.247910 2.201195 6.403392 -4.486903 1.705091 -3.802642 7.089959 -11.252372 -4.165723 0.558771 -18.944328 2.789716 -0.001966 0.444881 -18.302843 -17.350014 20.328983 -6.515495 -31.797077 -36.269409 59.712646 -19.308718 18.319624 -3.135263 -19.517752 18.464186 41.831402 -21.243093 -8.177421 17.856434 -37.255417 -13.047771 7.477261 -27.283737 -11.737287 5.739881 -4.478875 -10.556303 -3.050626 -36.639183 -1.388096 1.880844 -26.159697 -1.610327 1.928171 -12.728758 -8.745595 -2.533524 -28.775917 -0.261816 -0.412866 -18.306040 -0.025734 -0.471754 -7.660467 -4.693159 -20.549257 -19.463243 6.669637 -3.658494 -12.144180 4.759603 -3.002684 -7.435863 4.560385 -1.573239 9.343686 9.565083 14.502934 -0.001544 -4.067345 -32.719822 17.719112 -14.803584 -7.993781 25.049175 42.405041 48.225506 18.250261 -17.339626 -2.793218 17.780882 -16.928358 42.389252 34.612381 2.832579 18.987453 23.466005 8.218039 3.442373 13.175397 5.394737 2.352662 21.979094 6.145552 -1.832204 24.790972 0.128581 -0.376207 15.738352 -0.033050 -0.394593 26.492237 4.531704 -0.514942 19.557312 -0.031590 -0.784279 12.699656 -0.186604 -0.795136 19.244886 1.411486 -14.486410 20.362949 -5.463473 0.942785 13.065276 -3.093229 1.553242 -0.589045 -4.752851 1.746245 0.000521 0.000542 8.685746 -0.577831 -1.951275 -7.276579 -0.000146 -0.003564 -2.142073 2.595610 -2.191275 3.852284 -0.004419 -0.000099 11.227882 -0.900061 -3.954904 -11.891298 0.003989 0.008708 -1.689813 
29.697691 76.502343 -6.460950 0.283735 12.686180 -3.066163 -0.001539 -0.654388 -12.846252 0.522085 -0.797433 14.125546 -1.993950 2.148978 6.536792 -4.301140 1.699613 -3.769290 7.429348 -11.059638 -4.216959 1.122676 -17.967312 2.816550 -0.002013 0.698012 -18.243769 -17.121885 20.490755 -6.411905 -31.751522 -36.299530 59.696808 -19.342939 18.346794 -3.146852 -19.571573 18.511816 41.814663 -21.307966 -8.157929 17.848978 -37.339718 -13.072762 7.495114 -27.340548 -11.759784 5.751465 -4.542516 -10.547884 -3.053266 -36.809429 -1.394636 1.889913 -26.343493 -1.624588 1.941207 -12.780811 -8.744123 -2.531321 -28.858566 -0.266292 -0.403534 -18.364435 -0.030906 -0.463009 -7.636838 -4.694568 -20.550491 -19.506786 6.682152 -3.663566 -12.169328 4.771740 -3.005709 -7.735045 4.384253 -1.697932 8.611257 8.853948 14.063573 -0.001956 -4.382040 -32.255177 17.511763 -14.970469 -7.957500 25.050617 42.408501 48.225342 18.245136 -17.336626 -2.791947 17.774094 -16.922737 42.391197 34.586033 2.861656 18.984179 23.446505 8.211904 3.442923 13.165889 5.394166 2.354460 21.974869 6.167330 -1.830108 24.777363 0.130710 -0.367209 15.731738 -0.029331 -0.385973 26.440483 4.532123 -0.522894 19.451694 -0.032462 -0.789003 12.632807 -0.187082 -0.800138 19.228912 1.401519 -14.480142 20.298645 -5.442298 0.957453 13.025090 -3.076926 1.561994 -0.479752 -4.732635 1.712796 0.000360 0.000624 8.760553 -0.619467 -1.943849 -7.327291 -0.000338 -0.003449 -2.092553 2.716691 -2.064578 3.795708 -0.004346 -0.000279 11.248455 -0.979288 -3.941173 -11.816483 0.003830 0.008835 -1.707032 
29.694971 76.501801 -6.540003 0.223345 12.672263 -3.022163 -0.001497 -0.627365 -12.738398 0.473632 -0.759825 14.089666 -1.770054 2.090704 6.652790 -4.127973 1.685204 -3.725606 7.745299 -10.870882 -4.264630 1.621813 -17.063156 2.839168 -0.002067 0.924242 -18.169392 -16.933109 20.633675 -6.313219 -31.707230 -36.329056 59.681812 -19.374390 18.371794 -3.157559 -19.622166 18.555988 41.798847 -21.381372 -8.137794 17.844088 -37.413151 -13.094312 7.510481 -27.385838 -11.778150 5.760292 -4.603220 -10.539086 -3.055539 -36.966938 -1.400638 1.898116 -26.515043 -1.637549 1.953177 -12.826465 -8.742842 -2.529485 -28.932344 -0.270327 -0.395134 -18.417583 -0.035609 -0.455144 -7.615426 -4.695691 -20.551378 -19.544777 6.692821 -3.667859 -12.190995 4.782064 -3.008243 -8.016073 4.211798 -1.815160 7.955757 8.186164 13.651124 -0.002316 -4.671094 -31.783257 17.325451 -15.133404 -7.915302 25.050522 42.411209 48.224033 18.240034 -17.333328 -2.790673 17.766983 -16.916702 42.393253 34.563694 2.885964 18.981424 23.430456 8.207223 3.444033 13.158186 5.394439 2.356491 21.972134 6.183485 -1.827185 24.767256 0.132890 -0.358745 15.726867 -0.025699 -0.377887 26.390909 4.531204 -0.529505 19.355782 -0.033208 -0.793145 12.572841 -0.187412 -0.804495 19.211103 1.393916 -14.475052 20.242075 -5.423687 0.970479 12.989960 -3.062587 1.569899 -0.383283 -4.715031 1.671436 0.000182 0.000689 8.827826 -0.655736 -1.935598 -7.372589 -0.000488 -0.003373 -2.047213 2.825596 -1.948257 3.731321 -0.004261 -0.000426 11.268806 -1.046998 -3.935496 -11.748488 0.003723 0.008945 -1.721280 
